<svg version="1.1" viewBox="0 0 512 512" xml:space="preserve" xmlns="http://www.w3.org/2000/svg">
	<path d="m464 0h-416c-26.508 0-48 21.492-48 48v416c0 26.508 21.492 48 48 48h416c26.508 0 48-21.492 48-48v-416c0-26.508-21.492-48-48-48zm-19.336 35c10.492 0 19 8.508 19 19s-8.508 19-19 19-19-8.508-19-19 8.508-19 19-19zm-70.5 0c10.492 0 19 8.508 19 19s-8.508 19-19 19-19-8.508-19-19 8.508-19 19-19zm-70.5 0c10.492 0 19 8.508 19 19s-8.508 19-19 19-19-8.508-19-19 8.508-19 19-19zm168.34 429c0 4.406-3.586 8-8 8h-416c-4.414 0-8-3.594-8-8v-360h432v360z"/>
	<rect x="112" y="192" width="288" height="32"/>
	<rect x="112" y="272" width="288" height="32"/>
	<rect x="112" y="352" width="152" height="32"/>
</svg>